<svg version="1.1" xmlns="http://www.w3.org/2000/svg" xmlns:xlink="http://www.w3.org/1999/xlink" width="514.6689453125" height="215"><defs/><g><g transform="translate(-158,-266) scale(1,1)"><path fill="#C0C0C0" stroke="none" d="M 175 336.5 C 175 331.2532944 179.2532944 327 184.5 327 C 189.7467056 327 194 331.2532944 194 336.5 C 194 341.7467056 189.7467056 346 184.5 346 C 179.2532944 346 175 341.7467056 175 336.5 Z" opacity="0.2"/></g><g transform="translate(-158,-266) scale(1,1)"><path fill="#000000" stroke="none" d="M 168 329.5 C 168 324.2532944 172.2532944 320 177.5 320 C 182.7467056 320 187 324.2532944 187 329.5 C 187 334.7467056 182.7467056 339 177.5 339 C 172.2532944 339 168 334.7467056 168 329.5 Z"/></g><g transform="translate(-158,-266) scale(1,1)"><path fill="#C0C0C0" stroke="none" d="M 297 319 L 375 319 Q 385 319 385 329 L 385 348 Q 385 358 375 358 L 297 358 Q 287 358 287 348 L 287 329 Q 287 319 297 319 Z" opacity="0.2"/></g><g transform="translate(-158,-266) scale(1,1)"><path fill="#ffffff" stroke="none" d="M 290 312 L 368 312 Q 378 312 378 322 L 378 341 Q 378 351 368 351 L 290 351 Q 280 351 280 341 L 280 322 Q 280 312 290 312 Z"/></g><g transform="translate(-158,-266) scale(1,1)"><path fill="none" stroke="#000000" d="M 290 312 L 368 312 Q 378 312 378 322 L 378 341 Q 378 351 368 351 L 290 351 Q 280 351 280 341 L 280 322 Q 280 312 290 312 Z" stroke-miterlimit="10"/></g><g transform="translate(-158,-266) scale(1,1)"><g><path fill="none" stroke="none"/><text fill="#000000" stroke="none" font-family="Arial" font-size="14px" font-style="normal" font-weight="bold" text-decoration="none" x="308" y="332.5">未启动</text></g></g><g transform="translate(-158,-266) scale(1,1)"><path fill="#C0C0C0" stroke="none" d="M 529 311 L 589 311 Q 599 311 599 321 L 599 349 Q 599 359 589 359 L 529 359 Q 519 359 519 349 L 519 321 Q 519 311 529 311 Z" opacity="0.2"/></g><g transform="translate(-158,-266) scale(1,1)"><path fill="#ffffff" stroke="none" d="M 522 304 L 582 304 Q 592 304 592 314 L 592 342 Q 592 352 582 352 L 522 352 Q 512 352 512 342 L 512 314 Q 512 304 522 304 Z"/></g><g transform="translate(-158,-266) scale(1,1)"><path fill="none" stroke="#000000" d="M 522 304 L 582 304 Q 592 304 592 314 L 592 342 Q 592 352 582 352 L 522 352 Q 512 352 512 342 L 512 314 Q 512 304 522 304 Z" stroke-miterlimit="10"/></g><g transform="translate(-158,-266) scale(1,1)"><g><path fill="none" stroke="none"/><text fill="#000000" stroke="none" font-family="Arial" font-size="14px" font-style="normal" font-weight="bold" text-decoration="none" x="538" y="324.5">运行</text></g></g><g transform="translate(-158,-266) scale(1,1)"><path fill="#C0C0C0" stroke="none" d="M 401 439 L 450 439 Q 460 439 460 449 L 460 468 Q 460 478 450 478 L 401 478 Q 391 478 391 468 L 391 449 Q 391 439 401 439 Z" opacity="0.2"/></g><g transform="translate(-158,-266) scale(1,1)"><path fill="#ffffff" stroke="none" d="M 394 432 L 443 432 Q 453 432 453 442 L 453 461 Q 453 471 443 471 L 394 471 Q 384 471 384 461 L 384 442 Q 384 432 394 432 Z"/></g><g transform="translate(-158,-266) scale(1,1)"><path fill="none" stroke="#000000" d="M 394 432 L 443 432 Q 453 432 453 442 L 453 461 Q 453 471 443 471 L 394 471 Q 384 471 384 461 L 384 442 Q 384 432 394 432 Z" stroke-miterlimit="10"/></g><g transform="translate(-158,-266) scale(1,1)"><g><path fill="none" stroke="none"/><text fill="#000000" stroke="none" font-family="Arial" font-size="14px" font-style="normal" font-weight="bold" text-decoration="none" x="390.5" y="452.5">静止等待</text></g></g><g transform="translate(-158,-266) scale(1,1)"><path fill="none" stroke="#000000" d="M 379 330 L 511 329" stroke-miterlimit="10"/></g><g transform="translate(-158,-266) scale(1,1)"><path fill="none" stroke="#000000" d="M 500.8695061294084 333.28638471650714 L 511 329 L 500.80572738751937 324.8675907871525" stroke-miterlimit="10"/></g><g transform="translate(-158,-266) scale(1,1)"><g><path fill="none" stroke="none"/><text fill="#000000" stroke="none" font-family="Arial" font-size="14px" font-style="normal" font-weight="normal" text-decoration="none" x="430.5" y="320.5">加速</text></g></g><g transform="translate(-158,-266) scale(1,1)"><path fill="none" stroke="#000000" d="M 552 304 L 552 284 L 622 284 L 622 324 L 592 324" stroke-miterlimit="10"/></g><g transform="translate(-158,-266) scale(1,1)"><path fill="none" stroke="#000000" d="M 602.1626748576241 319.790482243984 L 592 324 L 602.1626748576241 328.209517756016" stroke-miterlimit="10"/></g><g transform="translate(-158,-266) scale(1,1)"><g><path fill="none" stroke="none"/><text fill="#000000" stroke="none" font-family="Arial" font-size="14px" font-style="normal" font-weight="normal" text-decoration="none" x="609.5" y="289.5">加 / 减速</text></g></g><g transform="translate(-158,-266) scale(1,1)"><path fill="none" stroke="#000000" d="M 525 353 L 440 431" stroke-miterlimit="10"/></g><g transform="translate(-158,-266) scale(1,1)"><path fill="none" stroke="#000000" d="M 444.6416734035182 421.0272938469505 L 440 431 L 450.3339268872831 427.2303905920789" stroke-miterlimit="10"/></g><g transform="translate(-158,-266) scale(1,1)"><g><path fill="none" stroke="none"/><text fill="#000000" stroke="none" font-family="Arial" font-size="14px" font-style="normal" font-weight="normal" text-decoration="none" x="440.5" y="418.5">车速减为61</text></g></g><g transform="translate(-158,-266) scale(1,1)"><path fill="none" stroke="#000000" d="M 403 431 L 345 352" stroke-miterlimit="10"/></g><g transform="translate(-158,-266) scale(1,1)"><path fill="none" stroke="#000000" d="M 354.407541306705 357.7007163201338 L 345 352 L 347.62112108467625 362.6831514198511" stroke-miterlimit="10"/></g><g transform="translate(-158,-266) scale(1,1)"><g><path fill="none" stroke="none"/><text fill="#000000" stroke="none" font-family="Arial" font-size="14px" font-style="normal" font-weight="normal" text-decoration="none" x="346.5" y="405.5">减速</text></g></g><g transform="translate(-158,-266) scale(1,1)"><path fill="none" stroke="#000000" d="M 440 431 L 525 353" stroke-miterlimit="10"/></g><g transform="translate(-158,-266) scale(1,1)"><path fill="none" stroke="#000000" d="M 520.3583265964818 362.9727061530495 L 525 353 L 514.666073112717 356.7696094079211" stroke-miterlimit="10"/></g><g transform="translate(-158,-266) scale(1,1)"><g><path fill="none" stroke="none"/><text fill="#000000" stroke="none" font-family="Arial" font-size="14px" font-style="normal" font-weight="normal" text-decoration="none" x="486.5" y="372.5">加速</text></g></g><g transform="translate(-158,-266) scale(1,1)"><path fill="none" stroke="#000000" d="M 188 329 L 279 330" stroke-miterlimit="10"/></g><g transform="translate(-158,-266) scale(1,1)"><path fill="none" stroke="#000000" d="M 268.7916830567088 334.09759260850973 L 279 330 L 268.88419434488014 325.67906538491434" stroke-miterlimit="10"/></g></g></svg>