<svg version="1.1" xmlns="http://www.w3.org/2000/svg" xmlns:xlink="http://www.w3.org/1999/xlink" width="877.9130859375" height="647"><defs/><g><g transform="translate(-22,-86) scale(1,1)"><rect fill="#C0C0C0" stroke="none" x="79" y="111" width="191.4716796875" height="91" opacity="0.2"/></g><g transform="translate(-22,-86) scale(1,1)"><rect fill="#ffffff" stroke="none" x="72" y="104" width="191.4716796875" height="91"/></g><g transform="translate(-22,-86) scale(1,1)"><path fill="none" stroke="#000000" d="M 72 104 L 263.4716796875 104 L 263.4716796875 195 L 72 195 L 72 104 Z Z" stroke-miterlimit="10"/></g><g transform="translate(-22,-86) scale(1,1)"><path fill="none" stroke="#000000" d="M 72 130 L 263.4716796875 130" stroke-miterlimit="10"/></g><g transform="translate(-22,-86) scale(1,1)"><path fill="none" stroke="#000000" d="M 72 140 L 263.4716796875 140" stroke-miterlimit="10"/></g><g transform="translate(-22,-86) scale(1,1)"><g><path fill="none" stroke="none"/><text fill="#000000" stroke="none" font-family="Arial" font-size="14px" font-style="normal" font-weight="bold" text-decoration="none" x="127.66015625" y="124.5">M_ADC0809</text></g></g><g transform="translate(-22,-86) scale(1,1)"><g><path fill="none" stroke="none"/><text fill="#000000" stroke="none" font-family="Arial" font-size="14px" font-style="normal" font-weight="normal" text-decoration="none" x="77" y="158.5">«constructor»+M_ADC0809()</text></g></g><g transform="translate(-22,-86) scale(1,1)"><g><path fill="none" stroke="none"/><text fill="#000000" stroke="none" font-family="Arial" font-size="14px" font-style="normal" font-weight="normal" text-decoration="none" x="77" y="174.5">+录音()</text></g></g><g transform="translate(-22,-86) scale(1,1)"><g><path fill="none" stroke="none"/><text fill="#000000" stroke="none" font-family="Arial" font-size="14px" font-style="normal" font-weight="normal" text-decoration="none" x="77" y="190.5">+播放()</text></g></g><g transform="translate(-22,-86) scale(1,1)"><rect fill="#C0C0C0" stroke="none" x="39" y="239" width="289.51953125" height="184" opacity="0.2"/></g><g transform="translate(-22,-86) scale(1,1)"><rect fill="#ffffff" stroke="none" x="32" y="232" width="289.51953125" height="184"/></g><g transform="translate(-22,-86) scale(1,1)"><path fill="none" stroke="#000000" d="M 32 232 L 321.51953125 232 L 321.51953125 416 L 32 416 L 32 232 Z Z" stroke-miterlimit="10"/></g><g transform="translate(-22,-86) scale(1,1)"><path fill="none" stroke="#000000" d="M 32 258 L 321.51953125 258" stroke-miterlimit="10"/></g><g transform="translate(-22,-86) scale(1,1)"><path fill="none" stroke="#000000" d="M 32 268 L 321.51953125 268" stroke-miterlimit="10"/></g><g transform="translate(-22,-86) scale(1,1)"><g><path fill="none" stroke="none"/><text fill="#000000" stroke="none" font-family="Arial" font-size="14px" font-style="normal" font-weight="bold" text-decoration="none" x="151.46337890625" y="252.5">M_8259</text></g></g><g transform="translate(-22,-86) scale(1,1)"><g><path fill="none" stroke="none"/><text fill="#000000" stroke="none" font-family="Arial" font-size="14px" font-style="normal" font-weight="normal" text-decoration="none" x="37" y="286.5">«constructor»+M_8259()</text></g></g><g transform="translate(-22,-86) scale(1,1)"><g><path fill="none" stroke="none"/><text fill="#000000" stroke="none" font-family="Arial" font-size="14px" font-style="normal" font-weight="normal" text-decoration="none" x="37" y="302.5">+开启中断()</text></g></g><g transform="translate(-22,-86) scale(1,1)"><g><path fill="none" stroke="none"/><text fill="#000000" stroke="none" font-family="Arial" font-size="14px" font-style="normal" font-weight="normal" text-decoration="none" x="37" y="318.5">+关闭中断()</text></g></g><g transform="translate(-22,-86) scale(1,1)"><g><path fill="none" stroke="none"/><text fill="#000000" stroke="none" font-family="Arial" font-size="14px" font-style="normal" font-weight="normal" text-decoration="none" x="37" y="334.5">+IR1()</text></g></g><g transform="translate(-22,-86) scale(1,1)"><g><path fill="none" stroke="none"/><text fill="#000000" stroke="none" font-family="Arial" font-size="14px" font-style="normal" font-weight="normal" text-decoration="none" x="37" y="350.5">+IR0()</text></g></g><g transform="translate(-22,-86) scale(1,1)"><g><path fill="none" stroke="none"/><text fill="#000000" stroke="none" font-family="Arial" font-size="14px" font-style="normal" font-weight="normal" text-decoration="none" x="37" y="366.5">+初始化()</text></g></g><g transform="translate(-22,-86) scale(1,1)"><g><path fill="none" stroke="none"/><text fill="#000000" stroke="none" font-family="Arial" font-size="14px" font-style="normal" font-weight="normal" text-decoration="none" x="37" y="382.5">+读取中断查询字()</text></g></g><g transform="translate(-22,-86) scale(1,1)"><g><path fill="none" stroke="none"/><text fill="#000000" stroke="none" font-family="Arial" font-size="14px" font-style="normal" font-weight="normal" text-decoration="none" x="37" y="398.5">+循环等待中断()</text></g></g><g transform="translate(-22,-86) scale(1,1)"><rect fill="#C0C0C0" stroke="none" x="719" y="479" width="172.81640625" height="91" opacity="0.2"/></g><g transform="translate(-22,-86) scale(1,1)"><rect fill="#ffffff" stroke="none" x="712" y="472" width="172.81640625" height="91"/></g><g transform="translate(-22,-86) scale(1,1)"><path fill="none" stroke="#000000" d="M 712 472 L 884.81640625 472 L 884.81640625 563 L 712 563 L 712 472 Z Z" stroke-miterlimit="10"/></g><g transform="translate(-22,-86) scale(1,1)"><path fill="none" stroke="#000000" d="M 712 498 L 884.81640625 498" stroke-miterlimit="10"/></g><g transform="translate(-22,-86) scale(1,1)"><path fill="none" stroke="#000000" d="M 712 508 L 884.81640625 508" stroke-miterlimit="10"/></g><g transform="translate(-22,-86) scale(1,1)"><g><path fill="none" stroke="none"/><text fill="#000000" stroke="none" font-family="Arial" font-size="14px" font-style="normal" font-weight="bold" text-decoration="none" x="778.9599609375" y="492.5">M_rgy</text></g></g><g transform="translate(-22,-86) scale(1,1)"><g><path fill="none" stroke="none"/><text fill="#000000" stroke="none" font-family="Arial" font-size="14px" font-style="normal" font-weight="normal" text-decoration="none" x="717" y="526.5">«constructor»+M_rgy()</text></g></g><g transform="translate(-22,-86) scale(1,1)"><g><path fill="none" stroke="none"/><text fill="#000000" stroke="none" font-family="Arial" font-size="14px" font-style="normal" font-weight="normal" text-decoration="none" x="717" y="542.5">+显示空字()</text></g></g><g transform="translate(-22,-86) scale(1,1)"><g><path fill="none" stroke="none"/><text fill="#000000" stroke="none" font-family="Arial" font-size="14px" font-style="normal" font-weight="normal" text-decoration="none" x="717" y="558.5">+关闭显示()</text></g></g><g transform="translate(-22,-86) scale(1,1)"><rect fill="#C0C0C0" stroke="none" x="735" y="647" width="161.9130859375" height="59" opacity="0.2"/></g><g transform="translate(-22,-86) scale(1,1)"><rect fill="#ffffff" stroke="none" x="728" y="640" width="161.9130859375" height="59"/></g><g transform="translate(-22,-86) scale(1,1)"><path fill="none" stroke="#000000" d="M 728 640 L 889.9130859375 640 L 889.9130859375 699 L 728 699 L 728 640 Z Z" stroke-miterlimit="10"/></g><g transform="translate(-22,-86) scale(1,1)"><path fill="none" stroke="#000000" d="M 728 666 L 889.9130859375 666" stroke-miterlimit="10"/></g><g transform="translate(-22,-86) scale(1,1)"><path fill="none" stroke="#000000" d="M 728 676 L 889.9130859375 676" stroke-miterlimit="10"/></g><g transform="translate(-22,-86) scale(1,1)"><g><path fill="none" stroke="none"/><text fill="#000000" stroke="none" font-family="Arial" font-size="14px" font-style="normal" font-weight="bold" text-decoration="none" x="783.66015625" y="660.5">M_8255</text></g></g><g transform="translate(-22,-86) scale(1,1)"><g><path fill="none" stroke="none"/><text fill="#000000" stroke="none" font-family="Arial" font-size="14px" font-style="normal" font-weight="normal" text-decoration="none" x="733" y="694.5">«constructor»+M_8255()</text></g></g><g transform="translate(-22,-86) scale(1,1)"><rect fill="#C0C0C0" stroke="none" x="79" y="463" width="208" height="267" opacity="0.2"/></g><g transform="translate(-22,-86) scale(1,1)"><rect fill="#ffffff" stroke="none" x="72" y="456" width="208" height="267"/></g><g transform="translate(-22,-86) scale(1,1)"><path fill="none" stroke="#000000" d="M 72 456 L 280 456 L 280 723 L 72 723 L 72 456 Z Z" stroke-miterlimit="10"/></g><g transform="translate(-22,-86) scale(1,1)"><path fill="none" stroke="#000000" d="M 72 482 L 280 482" stroke-miterlimit="10"/></g><g transform="translate(-22,-86) scale(1,1)"><path fill="none" stroke="#000000" d="M 72 492 L 280 492" stroke-miterlimit="10"/></g><g transform="translate(-22,-86) scale(1,1)"><g><path fill="none" stroke="none"/><text fill="#000000" stroke="none" font-family="Arial" font-size="14px" font-style="normal" font-weight="bold" text-decoration="none" x="161.99658203125" y="476.5">LCD</text></g></g><g transform="translate(-22,-86) scale(1,1)"><g><path fill="none" stroke="none"/><text fill="#000000" stroke="none" font-family="Arial" font-size="14px" font-style="normal" font-weight="normal" text-decoration="none" x="77" y="510.5">«constructor»+LCD()</text></g></g><g transform="translate(-22,-86) scale(1,1)"><g><path fill="none" stroke="none"/><text fill="#000000" stroke="none" font-family="Arial" font-size="14px" font-style="normal" font-weight="normal" text-decoration="none" x="77" y="526.5">+写指令()</text></g></g><g transform="translate(-22,-86) scale(1,1)"><g><path fill="none" stroke="none"/><text fill="#000000" stroke="none" font-family="Arial" font-size="14px" font-style="normal" font-weight="normal" text-decoration="none" x="77" y="542.5">+清屏()</text></g></g><g transform="translate(-22,-86) scale(1,1)"><g><path fill="none" stroke="none"/><text fill="#000000" stroke="none" font-family="Arial" font-size="14px" font-style="normal" font-weight="normal" text-decoration="none" x="77" y="558.5">+写数据()</text></g></g><g transform="translate(-22,-86) scale(1,1)"><g><path fill="none" stroke="none"/><text fill="#000000" stroke="none" font-family="Arial" font-size="14px" font-style="normal" font-weight="normal" text-decoration="none" x="77" y="574.5">+写一行数()</text></g></g><g transform="translate(-22,-86) scale(1,1)"><g><path fill="none" stroke="none"/><text fill="#000000" stroke="none" font-family="Arial" font-size="14px" font-style="normal" font-weight="normal" text-decoration="none" x="77" y="590.5">+更新单个字()</text></g></g><g transform="translate(-22,-86) scale(1,1)"><g><path fill="none" stroke="none"/><text fill="#000000" stroke="none" font-family="Arial" font-size="14px" font-style="normal" font-weight="normal" text-decoration="none" x="77" y="606.5">+显示游标()</text></g></g><g transform="translate(-22,-86) scale(1,1)"><g><path fill="none" stroke="none"/><text fill="#000000" stroke="none" font-family="Arial" font-size="14px" font-style="normal" font-weight="normal" text-decoration="none" x="77" y="622.5">+关闭游标()</text></g></g><g transform="translate(-22,-86) scale(1,1)"><g><path fill="none" stroke="none"/><text fill="#000000" stroke="none" font-family="Arial" font-size="14px" font-style="normal" font-weight="normal" text-decoration="none" x="77" y="638.5">+显示空车界面()</text></g></g><g transform="translate(-22,-86) scale(1,1)"><g><path fill="none" stroke="none"/><text fill="#000000" stroke="none" font-family="Arial" font-size="14px" font-style="normal" font-weight="normal" text-decoration="none" x="77" y="654.5">+显示初始界面()</text></g></g><g transform="translate(-22,-86) scale(1,1)"><g><path fill="none" stroke="none"/><text fill="#000000" stroke="none" font-family="Arial" font-size="14px" font-style="normal" font-weight="normal" text-decoration="none" x="77" y="670.5">+显示设置界面()</text></g></g><g transform="translate(-22,-86) scale(1,1)"><g><path fill="none" stroke="none"/><text fill="#000000" stroke="none" font-family="Arial" font-size="14px" font-style="normal" font-weight="normal" text-decoration="none" x="77" y="686.5">+显示重车界面()</text></g></g><g transform="translate(-22,-86) scale(1,1)"><g><path fill="none" stroke="none"/><text fill="#000000" stroke="none" font-family="Arial" font-size="14px" font-style="normal" font-weight="normal" text-decoration="none" x="77" y="702.5">+更新重车界面()</text></g></g><g transform="translate(-22,-86) scale(1,1)"><g><path fill="none" stroke="none"/><text fill="#000000" stroke="none" font-family="Arial" font-size="14px" font-style="normal" font-weight="normal" text-decoration="none" x="77" y="718.5">+更新空车界面()</text></g></g><g transform="translate(-22,-86) scale(1,1)"><rect fill="#C0C0C0" stroke="none" x="415" y="615" width="200" height="112" opacity="0.2"/></g><g transform="translate(-22,-86) scale(1,1)"><rect fill="#ffffff" stroke="none" x="408" y="608" width="200" height="112"/></g><g transform="translate(-22,-86) scale(1,1)"><path fill="none" stroke="#000000" d="M 408 608 L 608 608 L 608 720 L 408 720 L 408 608 Z Z" stroke-miterlimit="10"/></g><g transform="translate(-22,-86) scale(1,1)"><path fill="none" stroke="#000000" d="M 408 634 L 608 634" stroke-miterlimit="10"/></g><g transform="translate(-22,-86) scale(1,1)"><path fill="none" stroke="#000000" d="M 408 644 L 608 644" stroke-miterlimit="10"/></g><g transform="translate(-22,-86) scale(1,1)"><g><path fill="none" stroke="none"/><text fill="#000000" stroke="none" font-family="Arial" font-size="14px" font-style="normal" font-weight="bold" text-decoration="none" x="477.2587890625" y="628.5">KeyBoard</text></g></g><g transform="translate(-22,-86) scale(1,1)"><g><path fill="none" stroke="none"/><text fill="#000000" stroke="none" font-family="Arial" font-size="14px" font-style="normal" font-weight="normal" text-decoration="none" x="413" y="662.5">«constructor»+KeyBoard()</text></g></g><g transform="translate(-22,-86) scale(1,1)"><g><path fill="none" stroke="none"/><text fill="#000000" stroke="none" font-family="Arial" font-size="14px" font-style="normal" font-weight="normal" text-decoration="none" x="413" y="678.5">+初始化()</text></g></g><g transform="translate(-22,-86) scale(1,1)"><g><path fill="none" stroke="none"/><text fill="#000000" stroke="none" font-family="Arial" font-size="14px" font-style="normal" font-weight="normal" text-decoration="none" x="413" y="694.5">+是否有键按下()</text></g></g><g transform="translate(-22,-86) scale(1,1)"><g><path fill="none" stroke="none"/><text fill="#000000" stroke="none" font-family="Arial" font-size="14px" font-style="normal" font-weight="normal" text-decoration="none" x="413" y="710.5">+确定哪个键被按下()</text></g></g><g transform="translate(-22,-86) scale(1,1)"><rect fill="#C0C0C0" stroke="none" x="415" y="103" width="188.2861328125" height="139" opacity="0.2"/></g><g transform="translate(-22,-86) scale(1,1)"><rect fill="#ffffff" stroke="none" x="408" y="96" width="188.2861328125" height="139"/></g><g transform="translate(-22,-86) scale(1,1)"><path fill="none" stroke="#000000" d="M 408 96 L 596.2861328125 96 L 596.2861328125 235 L 408 235 L 408 96 Z Z" stroke-miterlimit="10"/></g><g transform="translate(-22,-86) scale(1,1)"><path fill="none" stroke="#000000" d="M 408 122 L 596.2861328125 122" stroke-miterlimit="10"/></g><g transform="translate(-22,-86) scale(1,1)"><path fill="none" stroke="#000000" d="M 408 132 L 596.2861328125 132" stroke-miterlimit="10"/></g><g transform="translate(-22,-86) scale(1,1)"><g><path fill="none" stroke="none"/><text fill="#000000" stroke="none" font-family="Arial" font-size="14px" font-style="normal" font-weight="bold" text-decoration="none" x="476.8466796875" y="116.5">M_8254</text></g></g><g transform="translate(-22,-86) scale(1,1)"><g><path fill="none" stroke="none"/><text fill="#000000" stroke="none" font-family="Arial" font-size="14px" font-style="normal" font-weight="normal" text-decoration="none" x="413" y="150.5">«constructor»+M_8254()</text></g></g><g transform="translate(-22,-86) scale(1,1)"><g><path fill="none" stroke="none"/><text fill="#000000" stroke="none" font-family="Arial" font-size="14px" font-style="normal" font-weight="normal" text-decoration="none" x="413" y="166.5">+初始化通道0，计数()</text></g></g><g transform="translate(-22,-86) scale(1,1)"><g><path fill="none" stroke="none"/><text fill="#000000" stroke="none" font-family="Arial" font-size="14px" font-style="normal" font-weight="normal" text-decoration="none" x="413" y="182.5">+初始化通道1，定时器()</text></g></g><g transform="translate(-22,-86) scale(1,1)"><g><path fill="none" stroke="none"/><text fill="#000000" stroke="none" font-family="Arial" font-size="14px" font-style="normal" font-weight="normal" text-decoration="none" x="413" y="198.5">+初始化通道2，频率发生器()</text></g></g><g transform="translate(-22,-86) scale(1,1)"><g><path fill="none" stroke="none"/><text fill="#000000" stroke="none" font-family="Arial" font-size="14px" font-style="normal" font-weight="normal" text-decoration="none" x="413" y="214.5">+发出打印声()</text></g></g><g transform="translate(-22,-86) scale(1,1)"><g><path fill="none" stroke="none"/><text fill="#000000" stroke="none" font-family="Arial" font-size="14px" font-style="normal" font-weight="normal" text-decoration="none" x="413" y="230.5">+读通道0计数值()</text></g></g><g transform="translate(-22,-86) scale(1,1)"><rect fill="#C0C0C0" stroke="none" x="687" y="111" width="208" height="80" opacity="0.2"/></g><g transform="translate(-22,-86) scale(1,1)"><rect fill="#ffffff" stroke="none" x="680" y="104" width="208" height="80"/></g><g transform="translate(-22,-86) scale(1,1)"><path fill="none" stroke="#000000" d="M 680 104 L 888 104 L 888 184 L 680 184 L 680 104 Z Z" stroke-miterlimit="10"/></g><g transform="translate(-22,-86) scale(1,1)"><path fill="none" stroke="#000000" d="M 680 130 L 888 130" stroke-miterlimit="10"/></g><g transform="translate(-22,-86) scale(1,1)"><path fill="none" stroke="#000000" d="M 680 140 L 888 140" stroke-miterlimit="10"/></g><g transform="translate(-22,-86) scale(1,1)"><g><path fill="none" stroke="none"/><text fill="#000000" stroke="none" font-family="Arial" font-size="14px" font-style="normal" font-weight="bold" text-decoration="none" x="743.92431640625" y="124.5">M_DAC0832</text></g></g><g transform="translate(-22,-86) scale(1,1)"><g><path fill="none" stroke="none"/><text fill="#000000" stroke="none" font-family="Arial" font-size="14px" font-style="normal" font-weight="normal" text-decoration="none" x="685" y="158.5">«constructor»+M_DAC0832()</text></g></g><g transform="translate(-22,-86) scale(1,1)"><g><path fill="none" stroke="none"/><text fill="#000000" stroke="none" font-family="Arial" font-size="14px" font-style="normal" font-weight="normal" text-decoration="none" x="685" y="174.5">+更新速度()</text></g></g><g transform="translate(-22,-86) scale(1,1)"><rect fill="#C0C0C0" stroke="none" x="703" y="255" width="192" height="155" opacity="0.2"/></g><g transform="translate(-22,-86) scale(1,1)"><rect fill="#ffffff" stroke="none" x="696" y="248" width="192" height="155"/></g><g transform="translate(-22,-86) scale(1,1)"><path fill="none" stroke="#000000" d="M 696 248 L 888 248 L 888 403 L 696 403 L 696 248 Z Z" stroke-miterlimit="10"/></g><g transform="translate(-22,-86) scale(1,1)"><path fill="none" stroke="#000000" d="M 696 274 L 888 274" stroke-miterlimit="10"/></g><g transform="translate(-22,-86) scale(1,1)"><path fill="none" stroke="#000000" d="M 696 284 L 888 284" stroke-miterlimit="10"/></g><g transform="translate(-22,-86) scale(1,1)"><g><path fill="none" stroke="none"/><text fill="#000000" stroke="none" font-family="Arial" font-size="14px" font-style="normal" font-weight="bold" text-decoration="none" x="776.9609375" y="268.5">TAXI</text></g></g><g transform="translate(-22,-86) scale(1,1)"><g><path fill="none" stroke="none"/><text fill="#000000" stroke="none" font-family="Arial" font-size="14px" font-style="normal" font-weight="normal" text-decoration="none" x="701" y="302.5">«constructor»+TAXI()</text></g></g><g transform="translate(-22,-86) scale(1,1)"><g><path fill="none" stroke="none"/><text fill="#000000" stroke="none" font-family="Arial" font-size="14px" font-style="normal" font-weight="normal" text-decoration="none" x="701" y="318.5">+读取此次运行里程()</text></g></g><g transform="translate(-22,-86) scale(1,1)"><g><path fill="none" stroke="none"/><text fill="#000000" stroke="none" font-family="Arial" font-size="14px" font-style="normal" font-weight="normal" text-decoration="none" x="701" y="334.5">+读取运行总里程()</text></g></g><g transform="translate(-22,-86) scale(1,1)"><g><path fill="none" stroke="none"/><text fill="#000000" stroke="none" font-family="Arial" font-size="14px" font-style="normal" font-weight="normal" text-decoration="none" x="701" y="350.5">+此次载客开始()</text></g></g><g transform="translate(-22,-86) scale(1,1)"><g><path fill="none" stroke="none"/><text fill="#000000" stroke="none" font-family="Arial" font-size="14px" font-style="normal" font-weight="normal" text-decoration="none" x="701" y="366.5">+此次载客结束()</text></g></g><g transform="translate(-22,-86) scale(1,1)"><g><path fill="none" stroke="none"/><text fill="#000000" stroke="none" font-family="Arial" font-size="14px" font-style="normal" font-weight="normal" text-decoration="none" x="701" y="382.5">+加速()</text></g></g><g transform="translate(-22,-86) scale(1,1)"><g><path fill="none" stroke="none"/><text fill="#000000" stroke="none" font-family="Arial" font-size="14px" font-style="normal" font-weight="normal" text-decoration="none" x="701" y="398.5">+减速()</text></g></g><g transform="translate(-22,-86) scale(1,1)"><rect fill="#C0C0C0" stroke="none" x="367" y="351" width="264" height="219" opacity="0.2"/></g><g transform="translate(-22,-86) scale(1,1)"><rect fill="#ffffff" stroke="none" x="360" y="344" width="264" height="219"/></g><g transform="translate(-22,-86) scale(1,1)"><path fill="none" stroke="#000000" d="M 360 344 L 624 344 L 624 563 L 360 563 L 360 344 Z Z" stroke-miterlimit="10"/></g><g transform="translate(-22,-86) scale(1,1)"><path fill="none" stroke="#000000" d="M 360 370 L 624 370" stroke-miterlimit="10"/></g><g transform="translate(-22,-86) scale(1,1)"><path fill="none" stroke="#000000" d="M 360 380 L 624 380" stroke-miterlimit="10"/></g><g transform="translate(-22,-86) scale(1,1)"><g><path fill="none" stroke="none"/><text fill="#000000" stroke="none" font-family="Arial" font-size="14px" font-style="normal" font-weight="bold" text-decoration="none" x="452.4609375" y="364.5">TAXIMETER</text></g></g><g transform="translate(-22,-86) scale(1,1)"><g><path fill="none" stroke="none"/><text fill="#000000" stroke="none" font-family="Arial" font-size="14px" font-style="normal" font-weight="normal" text-decoration="none" x="365" y="398.5">«constructor»+TAXIMETER()</text></g></g><g transform="translate(-22,-86) scale(1,1)"><g><path fill="none" stroke="none"/><text fill="#000000" stroke="none" font-family="Arial" font-size="14px" font-style="normal" font-weight="normal" text-decoration="none" x="365" y="414.5">«constructor»+~TAXIMETER()</text></g></g><g transform="translate(-22,-86) scale(1,1)"><g><path fill="none" stroke="none"/><text fill="#000000" stroke="none" font-family="Arial" font-size="14px" font-style="normal" font-weight="normal" text-decoration="none" x="365" y="430.5">+读取历史参数()</text></g></g><g transform="translate(-22,-86) scale(1,1)"><g><path fill="none" stroke="none"/><text fill="#000000" stroke="none" font-family="Arial" font-size="14px" font-style="normal" font-weight="normal" text-decoration="none" x="365" y="446.5">+写入历史参数()</text></g></g><g transform="translate(-22,-86) scale(1,1)"><g><path fill="none" stroke="none"/><text fill="#000000" stroke="none" font-family="Arial" font-size="14px" font-style="normal" font-weight="normal" text-decoration="none" x="365" y="462.5">+计算此次运行价格()</text></g></g><g transform="translate(-22,-86) scale(1,1)"><g><path fill="none" stroke="none"/><text fill="#000000" stroke="none" font-family="Arial" font-size="14px" font-style="normal" font-weight="normal" text-decoration="none" x="365" y="478.5">+里程开始()</text></g></g><g transform="translate(-22,-86) scale(1,1)"><g><path fill="none" stroke="none"/><text fill="#000000" stroke="none" font-family="Arial" font-size="14px" font-style="normal" font-weight="normal" text-decoration="none" x="365" y="494.5">+里程结束()</text></g></g><g transform="translate(-22,-86) scale(1,1)"><g><path fill="none" stroke="none"/><text fill="#000000" stroke="none" font-family="Arial" font-size="14px" font-style="normal" font-weight="normal" text-decoration="none" x="365" y="510.5">+等待IC卡插入()</text></g></g><g transform="translate(-22,-86) scale(1,1)"><g><path fill="none" stroke="none"/><text fill="#000000" stroke="none" font-family="Arial" font-size="14px" font-style="normal" font-weight="normal" text-decoration="none" x="365" y="526.5">+自检()</text></g></g><g transform="translate(-22,-86) scale(1,1)"><g><path fill="none" stroke="none"/><text fill="#000000" stroke="none" font-family="Arial" font-size="14px" font-style="normal" font-weight="normal" text-decoration="none" x="365" y="542.5">+状态更新()</text></g></g><g transform="translate(-22,-86) scale(1,1)"><g><path fill="none" stroke="none"/><text fill="#000000" stroke="none" font-family="Arial" font-size="14px" font-style="normal" font-weight="normal" text-decoration="none" x="365" y="558.5">+刷新()</text></g></g><g transform="translate(-22,-86) scale(1,1)"><path fill="none" stroke="#000000" d="M 695 271 L 597 218" stroke-miterlimit="10"/></g><g transform="translate(-22,-86) scale(1,1)"><path fill="#FFFFFF" stroke="none" d="M 618.8832548107264 220.26343961457323 L 597 218 L 610.8733043708268 235.0742913713688"/></g><g transform="translate(-22,-86) scale(1,1)"><path fill="none" stroke="#000000" d="M 618.8832548107264 220.26343961457323 L 597 218 L 610.8733043708268 235.0742913713688 L 618.8832548107264 220.26343961457323" stroke-miterlimit="10"/></g><g transform="translate(-22,-86) scale(1,1)"><path fill="none" stroke="#000000" d="M 789 247 L 786 185" stroke-miterlimit="10"/></g><g transform="translate(-22,-86) scale(1,1)"><path fill="#FFFFFF" stroke="none" d="M 795.3915323537567 204.8947008031873 L 786 185 L 778.573138365463 205.70849406068538"/></g><g transform="translate(-22,-86) scale(1,1)"><path fill="none" stroke="#000000" d="M 795.3915323537567 204.8947008031873 L 786 185 L 778.573138365463 205.70849406068538 L 795.3915323537567 204.8947008031873" stroke-miterlimit="10"/></g><g transform="translate(-22,-86) scale(1,1)"><path fill="none" stroke="#000000" d="M 281 544 L 359 510" stroke-miterlimit="10"/></g><g transform="translate(-22,-86) scale(1,1)"><path fill="none" stroke="#000000" d="M 351.36597889007066 517.9197046468383 L 359 510 L 348.0018550446737 510.20200876622175" stroke-miterlimit="10"/></g><g transform="translate(-22,-86) scale(1,1)"><g><path fill="none" stroke="none"/><text fill="#000000" stroke="none" font-family="Arial" font-size="14px" font-style="normal" font-weight="normal" text-decoration="none" x="300.5" y="519.5">+lcd</text></g></g><g transform="translate(-22,-86) scale(1,1)"><path fill="none" stroke="#000000" d="M 504 607 L 500 564" stroke-miterlimit="10"/></g><g transform="translate(-22,-86) scale(1,1)"><path fill="none" stroke="#000000" d="M 505.1327231310537 573.729087997338 L 500 564 L 496.74987923424277 574.5088874295994" stroke-miterlimit="10"/></g><g transform="translate(-22,-86) scale(1,1)"><g><path fill="none" stroke="none"/><text fill="#000000" stroke="none" font-family="Arial" font-size="14px" font-style="normal" font-weight="normal" text-decoration="none" x="475.5" y="592.5">+kb</text></g></g><g transform="translate(-22,-86) scale(1,1)"><path fill="none" stroke="#000000" d="M 711 499 L 625 481" stroke-miterlimit="10"/></g><g transform="translate(-22,-86) scale(1,1)"><path fill="none" stroke="#000000" d="M 635.8095059629685 478.9617211092323 L 625 481 L 634.0847557933026 487.2021941420802" stroke-miterlimit="10"/></g><g transform="translate(-22,-86) scale(1,1)"><g><path fill="none" stroke="none"/><text fill="#000000" stroke="none" font-family="Arial" font-size="14px" font-style="normal" font-weight="normal" text-decoration="none" x="650.5" y="510.5">+rgy</text></g></g><g transform="translate(-22,-86) scale(1,1)"><path fill="none" stroke="#000000" d="M 695 366 L 625 396" stroke-miterlimit="10"/></g><g transform="translate(-22,-86) scale(1,1)"><path fill="none" stroke="#000000" d="M 632.6827618052683 388.1275689241817 L 625 396 L 635.9991823688811 395.86588357261144" stroke-miterlimit="10"/></g><g transform="translate(-22,-86) scale(1,1)"><g><path fill="none" stroke="none"/><text fill="#000000" stroke="none" font-family="Arial" font-size="14px" font-style="normal" font-weight="normal" text-decoration="none" x="650.5" y="400.5">+taxi</text></g></g><g transform="translate(-22,-86) scale(1,1)"><path fill="none" stroke="#000000" d="M 500 236 L 496 343" stroke-miterlimit="10"/></g><g transform="translate(-22,-86) scale(1,1)"><path fill="none" stroke="#000000" d="M 492.1730684613437 332.6871635813207 L 496 343 L 500.5862273227952 333.0016741929638" stroke-miterlimit="10"/></g><g transform="translate(-22,-86) scale(1,1)"><g><path fill="none" stroke="none"/><text fill="#000000" stroke="none" font-family="Arial" font-size="14px" font-style="normal" font-weight="normal" text-decoration="none" x="482.5" y="295.5">+m_8254</text></g></g><g transform="translate(-22,-86) scale(1,1)"><path fill="none" stroke="#000000" d="M 625 544 L 764 639" stroke-miterlimit="10"/></g><g transform="translate(-22,-86) scale(1,1)"><path fill="none" stroke="#000000" d="M 753.2344566099949 636.7410012133874 L 764 639 L 757.9849646264753 629.7902579050634" stroke-miterlimit="10"/></g><g transform="translate(-22,-86) scale(1,1)"><g><path fill="none" stroke="none"/><text fill="#000000" stroke="none" font-family="Arial" font-size="14px" font-style="normal" font-weight="normal" text-decoration="none" x="630.5" y="584.5">+m_8255</text></g></g></g></svg>