<svg version="1.1" xmlns="http://www.w3.org/2000/svg" xmlns:xlink="http://www.w3.org/1999/xlink" width="497.572265625" height="235"><defs/><g><g transform="translate(-126,-262) scale(1,1)"><path fill="#C0C0C0" stroke="none" d="M 143 296.5 C 143 291.2532944 147.2532944 287 152.5 287 C 157.7467056 287 162 291.2532944 162 296.5 C 162 301.7467056 157.7467056 306 152.5 306 C 147.2532944 306 143 301.7467056 143 296.5 Z" opacity="0.2"/></g><g transform="translate(-126,-262) scale(1,1)"><path fill="#000000" stroke="none" d="M 136 289.5 C 136 284.2532944 140.2532944 280 145.5 280 C 150.7467056 280 155 284.2532944 155 289.5 C 155 294.7467056 150.7467056 299 145.5 299 C 140.2532944 299 136 294.7467056 136 289.5 Z"/></g><g transform="translate(-126,-262) scale(1,1)"><path fill="#C0C0C0" stroke="none" d="M 217 279 L 317.7861328125 279 Q 327.7861328125 279 327.7861328125 289 L 327.7861328125 308 Q 327.7861328125 318 317.7861328125 318 L 217 318 Q 207 318 207 308 L 207 289 Q 207 279 217 279 Z" opacity="0.2"/></g><g transform="translate(-126,-262) scale(1,1)"><path fill="#ffffff" stroke="none" d="M 210 272 L 310.7861328125 272 Q 320.7861328125 272 320.7861328125 282 L 320.7861328125 301 Q 320.7861328125 311 310.7861328125 311 L 210 311 Q 200 311 200 301 L 200 282 Q 200 272 210 272 Z"/></g><g transform="translate(-126,-262) scale(1,1)"><path fill="none" stroke="#000000" d="M 210 272 L 310.7861328125 272 Q 320.7861328125 272 320.7861328125 282 L 320.7861328125 301 Q 320.7861328125 311 310.7861328125 311 L 210 311 Q 200 311 200 301 L 200 282 Q 200 272 210 272 Z" stroke-miterlimit="10"/></g><g transform="translate(-126,-262) scale(1,1)"><g><path fill="none" stroke="none"/><text fill="#000000" stroke="none" font-family="Arial" font-size="14px" font-style="normal" font-weight="bold" text-decoration="none" x="207.5" y="292.5">等待ID卡插入：0</text></g></g><g transform="translate(-126,-262) scale(1,1)"><path fill="#C0C0C0" stroke="none" d="M 233 391 L 282.572265625 391 Q 292.572265625 391 292.572265625 401 L 292.572265625 420 Q 292.572265625 430 282.572265625 430 L 233 430 Q 223 430 223 420 L 223 401 Q 223 391 233 391 Z" opacity="0.2"/></g><g transform="translate(-126,-262) scale(1,1)"><path fill="#ffffff" stroke="none" d="M 226 384 L 275.572265625 384 Q 285.572265625 384 285.572265625 394 L 285.572265625 413 Q 285.572265625 423 275.572265625 423 L 226 423 Q 216 423 216 413 L 216 394 Q 216 384 226 384 Z"/></g><g transform="translate(-126,-262) scale(1,1)"><path fill="none" stroke="#000000" d="M 226 384 L 275.572265625 384 Q 285.572265625 384 285.572265625 394 L 285.572265625 413 Q 285.572265625 423 275.572265625 423 L 226 423 Q 216 423 216 413 L 216 394 Q 216 384 226 384 Z" stroke-miterlimit="10"/></g><g transform="translate(-126,-262) scale(1,1)"><g><path fill="none" stroke="none"/><text fill="#000000" stroke="none" font-family="Arial" font-size="14px" font-style="normal" font-weight="bold" text-decoration="none" x="222" y="404.5">自检：12</text></g></g><g transform="translate(-126,-262) scale(1,1)"><path fill="#C0C0C0" stroke="none" d="M 345 391 L 393.7998046875 391 Q 403.7998046875 391 403.7998046875 401 L 403.7998046875 420 Q 403.7998046875 430 393.7998046875 430 L 345 430 Q 335 430 335 420 L 335 401 Q 335 391 345 391 Z" opacity="0.2"/></g><g transform="translate(-126,-262) scale(1,1)"><path fill="#ffffff" stroke="none" d="M 338 384 L 386.7998046875 384 Q 396.7998046875 384 396.7998046875 394 L 396.7998046875 413 Q 396.7998046875 423 386.7998046875 423 L 338 423 Q 328 423 328 413 L 328 394 Q 328 384 338 384 Z"/></g><g transform="translate(-126,-262) scale(1,1)"><path fill="none" stroke="#000000" d="M 338 384 L 386.7998046875 384 Q 396.7998046875 384 396.7998046875 394 L 396.7998046875 413 Q 396.7998046875 423 386.7998046875 423 L 338 423 Q 328 423 328 413 L 328 394 Q 328 384 338 384 Z" stroke-miterlimit="10"/></g><g transform="translate(-126,-262) scale(1,1)"><g><path fill="none" stroke="none"/><text fill="#000000" stroke="none" font-family="Arial" font-size="14px" font-style="normal" font-weight="bold" text-decoration="none" x="334.13330078125" y="404.5">空车：11</text></g></g><g transform="translate(-126,-262) scale(1,1)"><path fill="#C0C0C0" stroke="none" d="M 553 279 L 602.572265625 279 Q 612.572265625 279 612.572265625 289 L 612.572265625 308 Q 612.572265625 318 602.572265625 318 L 553 318 Q 543 318 543 308 L 543 289 Q 543 279 553 279 Z" opacity="0.2"/></g><g transform="translate(-126,-262) scale(1,1)"><path fill="#ffffff" stroke="none" d="M 546 272 L 595.572265625 272 Q 605.572265625 272 605.572265625 282 L 605.572265625 301 Q 605.572265625 311 595.572265625 311 L 546 311 Q 536 311 536 301 L 536 282 Q 536 272 546 272 Z"/></g><g transform="translate(-126,-262) scale(1,1)"><path fill="none" stroke="#000000" d="M 546 272 L 595.572265625 272 Q 605.572265625 272 605.572265625 282 L 605.572265625 301 Q 605.572265625 311 595.572265625 311 L 546 311 Q 536 311 536 301 L 536 282 Q 536 272 546 272 Z" stroke-miterlimit="10"/></g><g transform="translate(-126,-262) scale(1,1)"><g><path fill="none" stroke="none"/><text fill="#000000" stroke="none" font-family="Arial" font-size="14px" font-style="normal" font-weight="bold" text-decoration="none" x="542" y="292.5">设置：13</text></g></g><g transform="translate(-126,-262) scale(1,1)"><path fill="#C0C0C0" stroke="none" d="M 561 455 L 610.572265625 455 Q 620.572265625 455 620.572265625 465 L 620.572265625 484 Q 620.572265625 494 610.572265625 494 L 561 494 Q 551 494 551 484 L 551 465 Q 551 455 561 455 Z" opacity="0.2"/></g><g transform="translate(-126,-262) scale(1,1)"><path fill="#ffffff" stroke="none" d="M 554 448 L 603.572265625 448 Q 613.572265625 448 613.572265625 458 L 613.572265625 477 Q 613.572265625 487 603.572265625 487 L 554 487 Q 544 487 544 477 L 544 458 Q 544 448 554 448 Z"/></g><g transform="translate(-126,-262) scale(1,1)"><path fill="none" stroke="#000000" d="M 554 448 L 603.572265625 448 Q 613.572265625 448 613.572265625 458 L 613.572265625 477 Q 613.572265625 487 603.572265625 487 L 554 487 Q 544 487 544 477 L 544 458 Q 544 448 554 448 Z" stroke-miterlimit="10"/></g><g transform="translate(-126,-262) scale(1,1)"><g><path fill="none" stroke="none"/><text fill="#000000" stroke="none" font-family="Arial" font-size="14px" font-style="normal" font-weight="bold" text-decoration="none" x="550" y="468.5">重车：10</text></g></g><g transform="translate(-126,-262) scale(1,1)"><path fill="none" stroke="#000000" d="M 156 289 L 199 290" stroke-miterlimit="10"/></g><g transform="translate(-126,-262) scale(1,1)"><path fill="none" stroke="#000000" d="M 188.7422028826507 293.97210250362457 L 199 290 L 188.9379414824055 285.55534271416747" stroke-miterlimit="10"/></g><g transform="translate(-126,-262) scale(1,1)"><path fill="none" stroke="#000000" d="M 258 312 L 252 383" stroke-miterlimit="10"/></g><g transform="translate(-126,-262) scale(1,1)"><path fill="none" stroke="#000000" d="M 248.6612005466364 372.51894956551496 L 252 383 L 257.0503341016872 373.2278904293221" stroke-miterlimit="10"/></g><g transform="translate(-126,-262) scale(1,1)"><g><path fill="none" stroke="none"/><text fill="#000000" stroke="none" font-family="Arial" font-size="14px" font-style="normal" font-weight="normal" text-decoration="none" x="240.5" y="354.5">插入ID卡</text></g></g><g transform="translate(-126,-262) scale(1,1)"><path fill="none" stroke="#000000" d="M 287 403 L 327 403" stroke-miterlimit="10"/></g><g transform="translate(-126,-262) scale(1,1)"><path fill="none" stroke="#000000" d="M 316.83732514237585 407.209517756016 L 327 403 L 316.83732514237585 398.790482243984" stroke-miterlimit="10"/></g><g transform="translate(-126,-262) scale(1,1)"><path fill="none" stroke="#000000" d="M 398 384 L 535 310" stroke-miterlimit="10"/></g><g transform="translate(-126,-262) scale(1,1)"><path fill="none" stroke="#000000" d="M 528.0589197475597 318.5335458590895 L 535 310 L 524.0577869402109 311.126043229268" stroke-miterlimit="10"/></g><g transform="translate(-126,-262) scale(1,1)"><path fill="none" stroke="#000000" d="M 398 414 L 543 457" stroke-miterlimit="10"/></g><g transform="translate(-126,-262) scale(1,1)"><path fill="none" stroke="#000000" d="M 532.0599021828635 458.1464116849924 L 543 457 L 534.453547170169 450.0748181231483" stroke-miterlimit="10"/></g><g transform="translate(-126,-262) scale(1,1)"><path fill="none" stroke="#000000" d="M 543 457 L 398 414" stroke-miterlimit="10"/></g><g transform="translate(-126,-262) scale(1,1)"><path fill="none" stroke="#000000" d="M 408.9400978171364 412.8535883150076 L 398 414 L 406.5464528298309 420.9251818768517" stroke-miterlimit="10"/></g><g transform="translate(-126,-262) scale(1,1)"><g><path fill="none" stroke="none"/><text fill="#000000" stroke="none" font-family="Arial" font-size="14px" font-style="normal" font-weight="normal" text-decoration="none" x="384.5" y="444.5">翻上空车牌 : 翻下空车牌</text></g></g><g transform="translate(-126,-262) scale(1,1)"><path fill="none" stroke="#000000" d="M 535 310 L 398 384" stroke-miterlimit="10"/></g><g transform="translate(-126,-262) scale(1,1)"><path fill="none" stroke="#000000" d="M 404.9410802524403 375.4664541409105 L 398 384 L 408.94221305978914 382.873956770732" stroke-miterlimit="10"/></g><g transform="translate(-126,-262) scale(1,1)"><g><path fill="none" stroke="none"/><text fill="#000000" stroke="none" font-family="Arial" font-size="14px" font-style="normal" font-weight="normal" text-decoration="none" x="424.5" y="348.5">设置 : 设置</text></g></g></g></svg>