<svg version="1.1" xmlns="http://www.w3.org/2000/svg" xmlns:xlink="http://www.w3.org/1999/xlink" width="825.3447265625" height="431"><defs/><g><g transform="translate(-46,-230) scale(1,1)"><path fill="#ffffff" stroke="none" d="M 585.9930905539773 257.68 C 585.9930905539773 252.886167936 589.8789328789227 249 594.67236328125 249 C 599.4657936835773 249 603.3516360085227 252.886167936 603.3516360085227 257.68 C 603.3516360085227 262.473832064 599.4657936835773 266.36 594.67236328125 266.36 C 589.8789328789227 266.36 585.9930905539773 262.473832064 585.9930905539773 257.68 Z"/></g><g transform="translate(-46,-230) scale(1,1)"><path fill="none" stroke="#000000" d="M 585.9930905539773 257.68 C 585.9930905539773 252.886167936 589.8789328789227 249 594.67236328125 249 C 599.4657936835773 249 603.3516360085227 252.886167936 603.3516360085227 257.68 C 603.3516360085227 262.473832064 599.4657936835773 266.36 594.67236328125 266.36 C 589.8789328789227 266.36 585.9930905539773 262.473832064 585.9930905539773 257.68 Z" stroke-miterlimit="10"/></g><g transform="translate(-46,-230) scale(1,1)"><path fill="none" stroke="#000000" d="M 594.67236328125 266.36 L 594.67236328125 283.64" stroke-miterlimit="10"/></g><g transform="translate(-46,-230) scale(1,1)"><path fill="none" stroke="#000000" d="M 585.4825450994318 272.84 L 603.8621814630682 272.84" stroke-miterlimit="10"/></g><g transform="translate(-46,-230) scale(1,1)"><path fill="none" stroke="#000000" d="M 594.67236328125 283.64 L 581.9087269176136 301" stroke-miterlimit="10"/></g><g transform="translate(-46,-230) scale(1,1)"><path fill="none" stroke="#000000" d="M 594.67236328125 283.64 L 607.4359996448864 301" stroke-miterlimit="10"/></g><g transform="translate(-46,-230) scale(1,1)"><g><path fill="none" stroke="none"/><text fill="#000000" stroke="none" font-family="Arial" font-size="14px" font-style="normal" font-weight="bold" text-decoration="none" x="580.67236328125" y="322.5">汽车</text></g></g><g transform="translate(-46,-230) scale(1,1)"><path fill="#C0C0C0" stroke="none" d="M 743 272.5 C 743 262.835016 766.9527632 255 796.5 255 C 826.0472368 255 850 262.835016 850 272.5 C 850 282.164984 826.0472368 290 796.5 290 C 766.9527632 290 743 282.164984 743 272.5 Z" opacity="0.2"/></g><g transform="translate(-46,-230) scale(1,1)"><path fill="#ffffff" stroke="none" d="M 736 265.5 C 736 255.835016 759.9527632 248 789.5 248 C 819.0472368 248 843 255.835016 843 265.5 C 843 275.164984 819.0472368 283 789.5 283 C 759.9527632 283 736 275.164984 736 265.5 Z"/></g><g transform="translate(-46,-230) scale(1,1)"><path fill="none" stroke="#000000" d="M 736 265.5 C 736 255.835016 759.9527632 248 789.5 248 C 819.0472368 248 843 255.835016 843 265.5 C 843 275.164984 819.0472368 283 789.5 283 C 759.9527632 283 736 275.164984 736 265.5 Z" stroke-miterlimit="10"/></g><g transform="translate(-46,-230) scale(1,1)"><g><path fill="none" stroke="none"/><text fill="#000000" stroke="none" font-family="Arial" font-size="14px" font-style="normal" font-weight="bold" text-decoration="none" x="762.662109375" y="273">1.加减速</text></g></g><g transform="translate(-46,-230) scale(1,1)"><path fill="#C0C0C0" stroke="none" d="M 711 352.5 C 711 342.835016 745.9217856 335 789 335 C 832.0782144 335 867 342.835016 867 352.5 C 867 362.164984 832.0782144 370 789 370 C 745.9217856 370 711 362.164984 711 352.5 Z" opacity="0.2"/></g><g transform="translate(-46,-230) scale(1,1)"><path fill="#ffffff" stroke="none" d="M 704 345.5 C 704 335.835016 738.9217856 328 782 328 C 825.0782144 328 860 335.835016 860 345.5 C 860 355.164984 825.0782144 363 782 363 C 738.9217856 363 704 355.164984 704 345.5 Z"/></g><g transform="translate(-46,-230) scale(1,1)"><path fill="none" stroke="#000000" d="M 704 345.5 C 704 335.835016 738.9217856 328 782 328 C 825.0782144 328 860 335.835016 860 345.5 C 860 355.164984 825.0782144 363 782 363 C 738.9217856 363 704 355.164984 704 345.5 Z" stroke-miterlimit="10"/></g><g transform="translate(-46,-230) scale(1,1)"><g><path fill="none" stroke="none"/><text fill="#000000" stroke="none" font-family="Arial" font-size="14px" font-style="normal" font-weight="bold" text-decoration="none" x="734.162109375" y="353">2.存储运行里程</text></g></g><g transform="translate(-46,-230) scale(1,1)"><path fill="none" stroke="#000000" d="M 622 285 L 735 271" stroke-miterlimit="10"/></g><g transform="translate(-46,-230) scale(1,1)"><path fill="none" stroke="#000000" d="M 725.4320114231303 276.4271166002669 L 735 271 L 724.3968594446412 268.07196134531887" stroke-miterlimit="10"/></g><g transform="translate(-46,-230) scale(1,1)"><path fill="none" stroke="#000000" d="M 622 297 L 723 327" stroke-miterlimit="10"/></g><g transform="translate(-46,-230) scale(1,1)"><path fill="none" stroke="#000000" d="M 712.0593996374814 328.1416057584198 L 723 327 L 714.4565901201909 320.07106446663136" stroke-miterlimit="10"/></g><g transform="translate(-46,-230) scale(1,1)"><path fill="#ffffff" stroke="none" d="M 825.9930905539773 481.68 C 825.9930905539773 476.886167936 829.8789328789227 473 834.67236328125 473 C 839.4657936835773 473 843.3516360085227 476.886167936 843.3516360085227 481.68 C 843.3516360085227 486.473832064 839.4657936835773 490.36 834.67236328125 490.36 C 829.8789328789227 490.36 825.9930905539773 486.473832064 825.9930905539773 481.68 Z"/></g><g transform="translate(-46,-230) scale(1,1)"><path fill="none" stroke="#000000" d="M 825.9930905539773 481.68 C 825.9930905539773 476.886167936 829.8789328789227 473 834.67236328125 473 C 839.4657936835773 473 843.3516360085227 476.886167936 843.3516360085227 481.68 C 843.3516360085227 486.473832064 839.4657936835773 490.36 834.67236328125 490.36 C 829.8789328789227 490.36 825.9930905539773 486.473832064 825.9930905539773 481.68 Z" stroke-miterlimit="10"/></g><g transform="translate(-46,-230) scale(1,1)"><path fill="none" stroke="#000000" d="M 834.67236328125 490.36 L 834.67236328125 507.64" stroke-miterlimit="10"/></g><g transform="translate(-46,-230) scale(1,1)"><path fill="none" stroke="#000000" d="M 825.4825450994318 496.84 L 843.8621814630682 496.84" stroke-miterlimit="10"/></g><g transform="translate(-46,-230) scale(1,1)"><path fill="none" stroke="#000000" d="M 834.67236328125 507.64 L 821.9087269176136 525" stroke-miterlimit="10"/></g><g transform="translate(-46,-230) scale(1,1)"><path fill="none" stroke="#000000" d="M 834.67236328125 507.64 L 847.4359996448864 525" stroke-miterlimit="10"/></g><g transform="translate(-46,-230) scale(1,1)"><g><path fill="none" stroke="none"/><text fill="#000000" stroke="none" font-family="Arial" font-size="14px" font-style="normal" font-weight="bold" text-decoration="none" x="813.6689453125" y="546.5">LCD屏</text></g></g><g transform="translate(-46,-230) scale(1,1)"><path fill="#C0C0C0" stroke="none" d="M 263 640.5 C 263 630.835016 296.57864 623 338 623 C 379.42136 623 413 630.835016 413 640.5 C 413 650.164984 379.42136 658 338 658 C 296.57864 658 263 650.164984 263 640.5 Z" opacity="0.2"/></g><g transform="translate(-46,-230) scale(1,1)"><path fill="#ffffff" stroke="none" d="M 256 633.5 C 256 623.835016 289.57864 616 331 616 C 372.42136 616 406 623.835016 406 633.5 C 406 643.164984 372.42136 651 331 651 C 289.57864 651 256 643.164984 256 633.5 Z"/></g><g transform="translate(-46,-230) scale(1,1)"><path fill="none" stroke="#000000" d="M 256 633.5 C 256 623.835016 289.57864 616 331 616 C 372.42136 616 406 623.835016 406 633.5 C 406 643.164984 372.42136 651 331 651 C 289.57864 651 256 643.164984 256 633.5 Z" stroke-miterlimit="10"/></g><g transform="translate(-46,-230) scale(1,1)"><g><path fill="none" stroke="none"/><text fill="#000000" stroke="none" font-family="Arial" font-size="14px" font-style="normal" font-weight="bold" text-decoration="none" x="293.78857421875" y="641">11.按键识别</text></g></g><g transform="translate(-46,-230) scale(1,1)"><path fill="#C0C0C0" stroke="none" d="M 255 552.5 C 255 542.835016 302.2339536 535 360.5 535 C 418.7660464 535 466 542.835016 466 552.5 C 466 562.164984 418.7660464 570 360.5 570 C 302.2339536 570 255 562.164984 255 552.5 Z" opacity="0.2"/></g><g transform="translate(-46,-230) scale(1,1)"><path fill="#ffffff" stroke="none" d="M 248 545.5 C 248 535.835016 295.2339536 528 353.5 528 C 411.7660464 528 459 535.835016 459 545.5 C 459 555.164984 411.7660464 563 353.5 563 C 295.2339536 563 248 555.164984 248 545.5 Z"/></g><g transform="translate(-46,-230) scale(1,1)"><path fill="none" stroke="#000000" d="M 248 545.5 C 248 535.835016 295.2339536 528 353.5 528 C 411.7660464 528 459 535.835016 459 545.5 C 459 555.164984 411.7660464 563 353.5 563 C 295.2339536 563 248 555.164984 248 545.5 Z" stroke-miterlimit="10"/></g><g transform="translate(-46,-230) scale(1,1)"><g><path fill="none" stroke="none"/><text fill="#000000" stroke="none" font-family="Arial" font-size="14px" font-style="normal" font-weight="bold" text-decoration="none" x="312.662109375" y="553">9.空车牌翻动</text></g></g><g transform="translate(-46,-230) scale(1,1)"><path fill="#C0C0C0" stroke="none" d="M 279 480.5 C 279 470.835016 326.010096 463 384 463 C 441.989904 463 489 470.835016 489 480.5 C 489 490.164984 441.989904 498 384 498 C 326.010096 498 279 490.164984 279 480.5 Z" opacity="0.2"/></g><g transform="translate(-46,-230) scale(1,1)"><path fill="#ffffff" stroke="none" d="M 272 473.5 C 272 463.835016 319.010096 456 377 456 C 434.989904 456 482 463.835016 482 473.5 C 482 483.164984 434.989904 491 377 491 C 319.010096 491 272 483.164984 272 473.5 Z"/></g><g transform="translate(-46,-230) scale(1,1)"><path fill="none" stroke="#000000" d="M 272 473.5 C 272 463.835016 319.010096 456 377 456 C 434.989904 456 482 463.835016 482 473.5 C 482 483.164984 434.989904 491 377 491 C 319.010096 491 272 483.164984 272 473.5 Z" stroke-miterlimit="10"/></g><g transform="translate(-46,-230) scale(1,1)"><g><path fill="none" stroke="none"/><text fill="#000000" stroke="none" font-family="Arial" font-size="14px" font-style="normal" font-weight="bold" text-decoration="none" x="311.26904296875" y="481">10.打印（声音模拟）</text></g></g><g transform="translate(-46,-230) scale(1,1)"><path fill="#C0C0C0" stroke="none" d="M 239 264.5 C 239 254.835016 278.8466528 247 328 247 C 377.1533472 247 417 254.835016 417 264.5 C 417 274.164984 377.1533472 282 328 282 C 278.8466528 282 239 274.164984 239 264.5 Z" opacity="0.2"/></g><g transform="translate(-46,-230) scale(1,1)"><path fill="#ffffff" stroke="none" d="M 232 257.5 C 232 247.835016 271.8466528 240 321 240 C 370.1533472 240 410 247.835016 410 257.5 C 410 267.164984 370.1533472 275 321 275 C 271.8466528 275 232 267.164984 232 257.5 Z"/></g><g transform="translate(-46,-230) scale(1,1)"><path fill="none" stroke="#000000" d="M 232 257.5 C 232 247.835016 271.8466528 240 321 240 C 370.1533472 240 410 247.835016 410 257.5 C 410 267.164984 370.1533472 275 321 275 C 271.8466528 275 232 267.164984 232 257.5 Z" stroke-miterlimit="10"/></g><g transform="translate(-46,-230) scale(1,1)"><g><path fill="none" stroke="none"/><text fill="#000000" stroke="none" font-family="Arial" font-size="14px" font-style="normal" font-weight="bold" text-decoration="none" x="266.162109375" y="265">6.参数读取与写入</text></g></g><g transform="translate(-46,-230) scale(1,1)"><path fill="#C0C0C0" stroke="none" d="M 295 400.5 C 295 390.835016 339.5476624 383 394.5 383 C 449.4523376 383 494 390.835016 494 400.5 C 494 410.164984 449.4523376 418 394.5 418 C 339.5476624 418 295 410.164984 295 400.5 Z" opacity="0.2"/></g><g transform="translate(-46,-230) scale(1,1)"><path fill="#ffffff" stroke="none" d="M 288 393.5 C 288 383.835016 332.5476624 376 387.5 376 C 442.4523376 376 487 383.835016 487 393.5 C 487 403.164984 442.4523376 411 387.5 411 C 332.5476624 411 288 403.164984 288 393.5 Z"/></g><g transform="translate(-46,-230) scale(1,1)"><path fill="none" stroke="#000000" d="M 288 393.5 C 288 383.835016 332.5476624 376 387.5 376 C 442.4523376 376 487 383.835016 487 393.5 C 487 403.164984 442.4523376 411 387.5 411 C 332.5476624 411 288 403.164984 288 393.5 Z" stroke-miterlimit="10"/></g><g transform="translate(-46,-230) scale(1,1)"><g><path fill="none" stroke="none"/><text fill="#000000" stroke="none" font-family="Arial" font-size="14px" font-style="normal" font-weight="bold" text-decoration="none" x="325.662109375" y="401">8.昼夜不同单价计价</text></g></g><g transform="translate(-46,-230) scale(1,1)"><path fill="#C0C0C0" stroke="none" d="M 271 328.5 C 271 318.835016 318.2339536 311 376.5 311 C 434.7660464 311 482 318.835016 482 328.5 C 482 338.164984 434.7660464 346 376.5 346 C 318.2339536 346 271 338.164984 271 328.5 Z" opacity="0.2"/></g><g transform="translate(-46,-230) scale(1,1)"><path fill="#ffffff" stroke="none" d="M 264 321.5 C 264 311.835016 311.2339536 304 369.5 304 C 427.7660464 304 475 311.835016 475 321.5 C 475 331.164984 427.7660464 339 369.5 339 C 311.2339536 339 264 331.164984 264 321.5 Z"/></g><g transform="translate(-46,-230) scale(1,1)"><path fill="none" stroke="#000000" d="M 264 321.5 C 264 311.835016 311.2339536 304 369.5 304 C 427.7660464 304 475 311.835016 475 321.5 C 475 331.164984 427.7660464 339 369.5 339 C 311.2339536 339 264 331.164984 264 321.5 Z" stroke-miterlimit="10"/></g><g transform="translate(-46,-230) scale(1,1)"><g><path fill="none" stroke="none"/><text fill="#000000" stroke="none" font-family="Arial" font-size="14px" font-style="normal" font-weight="bold" text-decoration="none" x="335.662109375" y="329">7.里程计量</text></g></g><g transform="translate(-46,-230) scale(1,1)"><path fill="#C0C0C0" stroke="none" d="M 567 400.5 C 567 390.835016 592.5197664 383 624 383 C 655.4802336 383 681 390.835016 681 400.5 C 681 410.164984 655.4802336 418 624 418 C 592.5197664 418 567 410.164984 567 400.5 Z" opacity="0.2"/></g><g transform="translate(-46,-230) scale(1,1)"><path fill="#ffffff" stroke="none" d="M 560 393.5 C 560 383.835016 585.5197664 376 617 376 C 648.4802336 376 674 383.835016 674 393.5 C 674 403.164984 648.4802336 411 617 411 C 585.5197664 411 560 403.164984 560 393.5 Z"/></g><g transform="translate(-46,-230) scale(1,1)"><path fill="none" stroke="#000000" d="M 560 393.5 C 560 383.835016 585.5197664 376 617 376 C 648.4802336 376 674 383.835016 674 393.5 C 674 403.164984 648.4802336 411 617 411 C 585.5197664 411 560 403.164984 560 393.5 Z" stroke-miterlimit="10"/></g><g transform="translate(-46,-230) scale(1,1)"><g><path fill="none" stroke="none"/><text fill="#000000" stroke="none" font-family="Arial" font-size="14px" font-style="normal" font-weight="bold" text-decoration="none" x="583.162109375" y="401">3.界面显示</text></g></g><g transform="translate(-46,-230) scale(1,1)"><path fill="#C0C0C0" stroke="none" d="M 567 488.5 C 567 478.835016 592.5197664 471 624 471 C 655.4802336 471 681 478.835016 681 488.5 C 681 498.164984 655.4802336 506 624 506 C 592.5197664 506 567 498.164984 567 488.5 Z" opacity="0.2"/></g><g transform="translate(-46,-230) scale(1,1)"><path fill="#ffffff" stroke="none" d="M 560 481.5 C 560 471.835016 585.5197664 464 617 464 C 648.4802336 464 674 471.835016 674 481.5 C 674 491.164984 648.4802336 499 617 499 C 585.5197664 499 560 491.164984 560 481.5 Z"/></g><g transform="translate(-46,-230) scale(1,1)"><path fill="none" stroke="#000000" d="M 560 481.5 C 560 471.835016 585.5197664 464 617 464 C 648.4802336 464 674 471.835016 674 481.5 C 674 491.164984 648.4802336 499 617 499 C 585.5197664 499 560 491.164984 560 481.5 Z" stroke-miterlimit="10"/></g><g transform="translate(-46,-230) scale(1,1)"><g><path fill="none" stroke="none"/><text fill="#000000" stroke="none" font-family="Arial" font-size="14px" font-style="normal" font-weight="bold" text-decoration="none" x="583.162109375" y="489">4.界面更新</text></g></g><g transform="translate(-46,-230) scale(1,1)"><path fill="#C0C0C0" stroke="none" d="M 575 616.5 C 575 606.835016 609.9217856 599 653 599 C 696.0782144 599 731 606.835016 731 616.5 C 731 626.164984 696.0782144 634 653 634 C 609.9217856 634 575 626.164984 575 616.5 Z" opacity="0.2"/></g><g transform="translate(-46,-230) scale(1,1)"><path fill="#ffffff" stroke="none" d="M 568 609.5 C 568 599.835016 602.9217856 592 646 592 C 689.0782144 592 724 599.835016 724 609.5 C 724 619.164984 689.0782144 627 646 627 C 602.9217856 627 568 619.164984 568 609.5 Z"/></g><g transform="translate(-46,-230) scale(1,1)"><path fill="none" stroke="#000000" d="M 568 609.5 C 568 599.835016 602.9217856 592 646 592 C 689.0782144 592 724 599.835016 724 609.5 C 724 619.164984 689.0782144 627 646 627 C 602.9217856 627 568 619.164984 568 609.5 Z" stroke-miterlimit="10"/></g><g transform="translate(-46,-230) scale(1,1)"><g><path fill="none" stroke="none"/><text fill="#000000" stroke="none" font-family="Arial" font-size="14px" font-style="normal" font-weight="bold" text-decoration="none" x="598.162109375" y="617">5.浮动游标控制</text></g></g><g transform="translate(-46,-230) scale(1,1)"><path fill="#ffffff" stroke="none" d="M 74.32072727272727 385.68 C 74.32072727272727 380.886167936 78.20656959767273 377 83 377 C 87.79343040232727 377 91.67927272727273 380.886167936 91.67927272727273 385.68 C 91.67927272727273 390.473832064 87.79343040232727 394.36 83 394.36 C 78.20656959767273 394.36 74.32072727272727 390.473832064 74.32072727272727 385.68 Z"/></g><g transform="translate(-46,-230) scale(1,1)"><path fill="none" stroke="#000000" d="M 74.32072727272727 385.68 C 74.32072727272727 380.886167936 78.20656959767273 377 83 377 C 87.79343040232727 377 91.67927272727273 380.886167936 91.67927272727273 385.68 C 91.67927272727273 390.473832064 87.79343040232727 394.36 83 394.36 C 78.20656959767273 394.36 74.32072727272727 390.473832064 74.32072727272727 385.68 Z" stroke-miterlimit="10"/></g><g transform="translate(-46,-230) scale(1,1)"><path fill="none" stroke="#000000" d="M 83 394.36 L 83 411.64" stroke-miterlimit="10"/></g><g transform="translate(-46,-230) scale(1,1)"><path fill="none" stroke="#000000" d="M 73.81018181818182 400.84 L 92.18981818181818 400.84" stroke-miterlimit="10"/></g><g transform="translate(-46,-230) scale(1,1)"><path fill="none" stroke="#000000" d="M 83 411.64 L 70.23636363636363 429" stroke-miterlimit="10"/></g><g transform="translate(-46,-230) scale(1,1)"><path fill="none" stroke="#000000" d="M 83 411.64 L 95.76363636363637 429" stroke-miterlimit="10"/></g><g transform="translate(-46,-230) scale(1,1)"><g><path fill="none" stroke="none"/><text fill="#000000" stroke="none" font-family="Arial" font-size="14px" font-style="normal" font-weight="bold" text-decoration="none" x="62" y="450.5">计价器</text></g></g><g transform="translate(-46,-230) scale(1,1)"><path fill="none" stroke="#000000" d="M 111 397 L 293 276" stroke-miterlimit="10"/></g><g transform="translate(-46,-230) scale(1,1)"><path fill="none" stroke="#000000" d="M 286.8675699660757 285.13199331356645 L 293 276 L 282.20642274008696 278.1210115356331" stroke-miterlimit="10"/></g><g transform="translate(-46,-230) scale(1,1)"><path fill="none" stroke="#000000" d="M 111 407 L 312 340" stroke-miterlimit="10"/></g><g transform="translate(-46,-230) scale(1,1)"><path fill="none" stroke="#000000" d="M 303.6900064950472 347.2072191549614 L 312 340 L 301.02767370306094 339.22022077900255" stroke-miterlimit="10"/></g><g transform="translate(-46,-230) scale(1,1)"><path fill="none" stroke="#000000" d="M 111 414 L 287 401" stroke-miterlimit="10"/></g><g transform="translate(-46,-230) scale(1,1)"><path fill="none" stroke="#000000" d="M 277.1750207157304 405.9466940539792 L 287 401 L 276.5548496130518 397.5505314330994" stroke-miterlimit="10"/></g><g transform="translate(-46,-230) scale(1,1)"><path fill="none" stroke="#000000" d="M 111 429 L 315 527" stroke-miterlimit="10"/></g><g transform="translate(-46,-230) scale(1,1)"><path fill="none" stroke="#000000" d="M 304.0167178092912 526.3937720566825 L 315 527 L 307.66231457292895 518.8049787935997" stroke-miterlimit="10"/></g><g transform="translate(-46,-230) scale(1,1)"><path fill="none" stroke="#000000" d="M 111 441 L 310 615" stroke-miterlimit="10"/></g><g transform="translate(-46,-230) scale(1,1)"><path fill="none" stroke="#000000" d="M 299.57856740919294 611.4795252088298 L 310 615 L 305.1202859431946 605.1415827475291" stroke-miterlimit="10"/></g><g transform="translate(-46,-230) scale(1,1)"><path fill="none" stroke="#000000" d="M 681 591 L 807 526" stroke-miterlimit="10"/></g><g transform="translate(-46,-230) scale(1,1)"><path fill="none" stroke="#000000" d="M 799.8982041637066 534.400267608809 L 807 526 L 796.038385815584 526.9181581955252" stroke-miterlimit="10"/></g><g transform="translate(-46,-230) scale(1,1)"><path fill="none" stroke="#000000" d="M 675 489 L 807 508" stroke-miterlimit="10"/></g><g transform="translate(-46,-230) scale(1,1)"><path fill="none" stroke="#000000" d="M 796.3412604473475 510.7186892335687 L 807 508 L 797.5407293904229 502.3855365764135" stroke-miterlimit="10"/></g><g transform="translate(-46,-230) scale(1,1)"><path fill="none" stroke="#000000" d="M 652 412 L 807 497" stroke-miterlimit="10"/></g><g transform="translate(-46,-230) scale(1,1)"><path fill="none" stroke="#000000" d="M 796.0651671649963 495.80441191435943 L 807 497 L 800.1133139940899 488.4224971083653" stroke-miterlimit="10"/></g><g transform="translate(-46,-230) scale(1,1)"><path fill="none" stroke="#000000" d="M 434 340 L 559 376" stroke-miterlimit="10"/></g><g transform="translate(-46,-230) scale(1,1)"><path fill="none" stroke="#000000" d="M 427 527 L 559 495" stroke-miterlimit="10"/></g><g transform="translate(-46,-230) scale(1,1)"><path fill="none" stroke="#000000" d="M 359 527 L 371 492" stroke-miterlimit="10"/></g><g transform="translate(-46,-230) scale(1,1)"><path fill="none" stroke="#000000" d="M 371.6859735991641 502.9785900834875 L 371 492 L 363.7220210877824 500.24809207958526" stroke-miterlimit="10"/></g><g transform="translate(-46,-230) scale(1,1)"><path fill="none" stroke="#000000" d="M 488 393 L 559 393" stroke-miterlimit="10"/></g><g transform="translate(-46,-230) scale(1,1)"><path fill="none" stroke="#000000" d="M 365 615 L 581 500" stroke-miterlimit="10"/></g><g transform="translate(-46,-230) scale(1,1)"><path fill="#C0C0C0" stroke="none" d="M 103 616.5 C 103 606.835016 130.9822 599 165.5 599 C 200.0178 599 228 606.835016 228 616.5 C 228 626.164984 200.0178 634 165.5 634 C 130.9822 634 103 626.164984 103 616.5 Z" opacity="0.2"/></g><g transform="translate(-46,-230) scale(1,1)"><path fill="#ffffff" stroke="none" d="M 96 609.5 C 96 599.835016 123.9822 592 158.5 592 C 193.0178 592 221 599.835016 221 609.5 C 221 619.164984 193.0178 627 158.5 627 C 123.9822 627 96 619.164984 96 609.5 Z"/></g><g transform="translate(-46,-230) scale(1,1)"><path fill="none" stroke="#000000" d="M 96 609.5 C 96 599.835016 123.9822 592 158.5 592 C 193.0178 592 221 599.835016 221 609.5 C 221 619.164984 193.0178 627 158.5 627 C 123.9822 627 96 619.164984 96 609.5 Z" stroke-miterlimit="10"/></g><g transform="translate(-46,-230) scale(1,1)"><g><path fill="none" stroke="none"/><text fill="#000000" stroke="none" font-family="Arial" font-size="14px" font-style="normal" font-weight="bold" text-decoration="none" x="120.76904296875" y="617">12.语音播报</text></g></g><g transform="translate(-46,-230) scale(1,1)"><path fill="none" stroke="#000000" d="M 99 457 L 151 591" stroke-miterlimit="10"/></g><g transform="translate(-46,-230) scale(1,1)"><path fill="none" stroke="#000000" d="M 143.39901299176893 583.0485852516233 L 151 591 L 151.24778983137284 580.0027912541651" stroke-miterlimit="10"/></g></g></svg>